<svg width="24" height="24" viewBox="0 0 24 24" fill="none" xmlns="http://www.w3.org/2000/svg">
<path fill-rule="evenodd" clip-rule="evenodd" d="M11.2931 15.7072C11.4806 15.8947 11.7349 16 12.0001 16C12.2652 16 12.5195 15.8947 12.7071 15.7072L18.3641 10.0502C18.5462 9.86161 18.647 9.60901 18.6447 9.34681C18.6425 9.08462 18.5373 8.8338 18.3519 8.64839C18.1665 8.46299 17.9157 8.35782 17.6535 8.35554C17.3913 8.35326 17.1387 8.45406 16.9501 8.63621L12.0001 13.5862L7.05006 8.63621C6.86146 8.45406 6.60885 8.35326 6.34666 8.35554C6.08446 8.35782 5.83365 8.46299 5.64824 8.64839C5.46283 8.8338 5.35766 9.08462 5.35538 9.34681C5.35311 9.60901 5.4539 9.86161 5.63606 10.0502L11.2931 15.7072Z" fill="white"/>
</svg>
