<svg width="24" height="24" viewBox="0 0 24 24" fill="none" xmlns="http://www.w3.org/2000/svg">
<path d="M12.391 4.26236C12.2951 4.16466 12.1801 4.08769 12.0533 4.03622C11.9264 3.98476 11.7903 3.9599 11.6534 3.96318C11.5165 3.96646 11.3818 3.99781 11.2575 4.0553C11.1333 4.11278 11.0221 4.19517 10.931 4.29736L4.754 11.2164C4.5904 11.3996 4.49999 11.6367 4.5 11.8824V19.5004C4.5 19.7656 4.60536 20.0199 4.79289 20.2075C4.98043 20.395 5.23478 20.5004 5.5 20.5004H8.5C8.76522 20.5004 9.01957 20.395 9.20711 20.2075C9.39464 20.0199 9.5 19.7656 9.5 19.5004V16.0004C9.5 15.7351 9.60536 15.4808 9.79289 15.2933C9.98043 15.1057 10.2348 15.0004 10.5 15.0004H13.5C13.7652 15.0004 14.0196 15.1057 14.2071 15.2933C14.3946 15.4808 14.5 15.7351 14.5 16.0004V19.5004C14.5 19.7656 14.6054 20.0199 14.7929 20.2075C14.9804 20.395 15.2348 20.5004 15.5 20.5004H18.5C18.7652 20.5004 19.0196 20.395 19.2071 20.2075C19.3946 20.0199 19.5 19.7656 19.5 19.5004V11.9094C19.4997 11.6474 19.3966 11.3961 19.213 11.2094L12.391 4.26236Z" stroke="white"/>
</svg>
