<svg width="24" height="24" viewBox="0 0 24 24" fill="none" xmlns="http://www.w3.org/2000/svg">
<path d="M9 9.5V7.5C9 6.70435 9.31607 5.94129 9.87868 5.37868C10.4413 4.81607 11.2044 4.5 12 4.5C12.7956 4.5 13.5587 4.81607 14.1213 5.37868C14.6839 5.94129 15 6.70435 15 7.5V9.5C15.0002 10.0268 14.8616 10.5443 14.5983 11.0005C14.335 11.4568 13.9562 11.8356 13.5 12.099V13.323C13.5001 13.5228 13.5601 13.718 13.6722 13.8834C13.7843 14.0488 13.9434 14.1769 14.129 14.251L16.179 15.071C16.8645 15.3449 17.452 15.818 17.8658 16.4293C18.2796 17.0405 18.5005 17.7619 18.5 18.5H5.5C5.5 16.99 6.42 15.632 7.821 15.072L9.871 14.252C10.0567 14.1778 10.2159 14.0496 10.3281 13.884C10.4402 13.7184 10.5001 13.523 10.5 13.323V12.099C10.0438 11.8356 9.66501 11.4568 9.40169 11.0005C9.13838 10.5443 8.99984 10.0268 9 9.5Z" stroke="white" stroke-linecap="round" stroke-linejoin="round"/>
</svg>
