<svg width="200" height="200" viewBox="0 0 200 200" fill="none" xmlns="http://www.w3.org/2000/svg">
<g filter="url(#filter0_i_24_325)">
<circle cx="100" cy="100" r="100" fill="url(#paint0_linear_24_325)"/>
</g>
<g filter="url(#filter1_d_24_325)">
<rect x="43" y="78.3972" width="27.4941" height="82.8948" rx="13.7471" transform="rotate(-42 43 78.3972)" fill="white"/>
<rect x="80.8667" y="78.3972" width="27.4941" height="82.8948" rx="13.7471" transform="rotate(-42 80.8667 78.3972)" fill="white"/>
<path fill-rule="evenodd" clip-rule="evenodd" d="M48.6587 84.6099C49.2815 86.1837 50.1905 87.6752 51.3895 89.0069L76.1528 116.509V120.665C76.1528 128.257 69.9981 134.412 62.4058 134.412C54.8135 134.412 48.6587 128.257 48.6587 120.665V84.6099ZM50.5605 120.425C50.5605 119.32 51.4559 118.425 52.5605 118.425H52.6846C53.7892 118.425 54.6846 119.32 54.6846 120.425V121.236C54.6846 122.341 53.7892 123.236 52.6846 123.236H52.5605C51.4559 123.236 50.5605 122.341 50.5605 121.236V120.425ZM52.5605 112.239C51.4559 112.239 50.5605 113.134 50.5605 114.239V115.05C50.5605 116.155 51.4559 117.05 52.5605 117.05H52.6846C53.7892 117.05 54.6846 116.155 54.6846 115.05V114.239C54.6846 113.134 53.7892 112.239 52.6846 112.239H52.5605ZM50.5605 108.053C50.5605 106.948 51.4559 106.053 52.5605 106.053H52.6846C53.7892 106.053 54.6846 106.948 54.6846 108.053V108.864C54.6846 109.969 53.7892 110.864 52.6846 110.864H52.5605C51.4559 110.864 50.5605 109.969 50.5605 108.864V108.053Z" fill="white"/>
<path fill-rule="evenodd" clip-rule="evenodd" d="M150.977 115.456V79.4238C150.977 71.8315 144.822 65.6768 137.229 65.6768C129.637 65.6768 123.482 71.8315 123.482 79.4238V83.5192L148.22 110.993C149.436 112.343 150.353 113.858 150.977 115.456ZM144.63 90.8689C144.63 89.7643 145.526 88.8689 146.63 88.8689H146.754C147.859 88.8689 148.754 89.7643 148.754 90.8689V91.6803C148.754 92.7849 147.859 93.6803 146.754 93.6803H146.63C145.526 93.6803 144.63 92.7849 144.63 91.6803V90.8689ZM146.63 82.6826C145.526 82.6826 144.63 83.5781 144.63 84.6826V85.4941C144.63 86.5987 145.526 87.4941 146.63 87.4941H146.754C147.859 87.4941 148.754 86.5987 148.754 85.4941V84.6826C148.754 83.5781 147.859 82.6826 146.754 82.6826H146.63ZM144.63 78.4965C144.63 77.3919 145.526 76.4965 146.63 76.4965H146.754C147.859 76.4965 148.754 77.3919 148.754 78.4965V79.308C148.754 80.4126 147.859 81.308 146.754 81.308H146.63C145.526 81.308 144.63 80.4126 144.63 79.308V78.4965Z" fill="white"/>
</g>
<defs>
<filter id="filter0_i_24_325" x="0" y="0" width="200" height="200" filterUnits="userSpaceOnUse" color-interpolation-filters="sRGB">
<feFlood flood-opacity="0" result="BackgroundImageFix"/>
<feBlend mode="normal" in="SourceGraphic" in2="BackgroundImageFix" result="shape"/>
<feColorMatrix in="SourceAlpha" type="matrix" values="0 0 0 0 0 0 0 0 0 0 0 0 0 0 0 0 0 0 127 0" result="hardAlpha"/>
<feOffset/>
<feGaussianBlur stdDeviation="2.5"/>
<feComposite in2="hardAlpha" operator="arithmetic" k2="-1" k3="1"/>
<feColorMatrix type="matrix" values="0 0 0 0 1 0 0 0 0 1 0 0 0 0 1 0 0 0 0.5 0"/>
<feBlend mode="screen" in2="shape" result="effect1_innerShadow_24_325"/>
</filter>
<filter id="filter1_d_24_325" x="38.6587" y="55.6675" width="122.44" height="88.7444" filterUnits="userSpaceOnUse" color-interpolation-filters="sRGB">
<feFlood flood-opacity="0" result="BackgroundImageFix"/>
<feColorMatrix in="SourceAlpha" type="matrix" values="0 0 0 0 0 0 0 0 0 0 0 0 0 0 0 0 0 0 127 0" result="hardAlpha"/>
<feOffset/>
<feGaussianBlur stdDeviation="5"/>
<feComposite in2="hardAlpha" operator="out"/>
<feColorMatrix type="matrix" values="0 0 0 0 1 0 0 0 0 1 0 0 0 0 1 0 0 0 0.25 0"/>
<feBlend mode="normal" in2="BackgroundImageFix" result="effect1_dropShadow_24_325"/>
<feBlend mode="normal" in="SourceGraphic" in2="effect1_dropShadow_24_325" result="shape"/>
</filter>
<linearGradient id="paint0_linear_24_325" x1="200" y1="1.16837e-05" x2="2.02999" y2="201.99" gradientUnits="userSpaceOnUse">
<stop stop-color="#FF7171" stop-opacity="0.7"/>
<stop offset="1" stop-color="#8B89FF" stop-opacity="0.7"/>
</linearGradient>
</defs>
</svg>
